HIERARCHY
ROOT Hips
{
    OFFSET 0.000000 0.000000 0.000000
    CHANNELS 6 Xposition Yposition Zposition Zrotation Xrotation Yrotation
    JOINT Spine
    {
        OFFSET -0.000000 7.883683 0.000000
        CHANNELS 3 Zrotation Xrotation Yrotation
        JOINT Spine1
        {
            OFFSET -0.000000 24.776327 0.000000
            CHANNELS 3 Zrotation Xrotation Yrotation
            JOINT Neck
            {
                OFFSET -0.000000 24.674574 2.243143
                CHANNELS 3 Zrotation Xrotation Yrotation
                JOINT Head
                {
                    OFFSET -0.000000 13.459947 -1.922849
                    CHANNELS 3 Zrotation Xrotation Yrotation
                    End Site
                    {
                        OFFSET -0.000000 24.035618 0.000000
                    }
                }
            }
            JOINT LeftShoulder
            {
                OFFSET 3.810223 22.323311 -0.325006
                CHANNELS 3 Zrotation Xrotation Yrotation
                JOINT LeftArm
                {
                    OFFSET 12.560579 0.000000 0.000000
                    CHANNELS 3 Zrotation Xrotation Yrotation
                    JOINT LeftForeArm
                    {
                        OFFSET 28.806782 0.000000 0.000000
                        CHANNELS 3 Zrotation Xrotation Yrotation
                        JOINT LeftHand
                        {
                            OFFSET 23.813900 0.000000 0.000000
                            CHANNELS 3 Zrotation Xrotation Yrotation
                            End Site
                            {
                                OFFSET 14.421371 0.000000 0.000000
                            }
                        }
                    }
                }
            }
            JOINT RightShoulder
            {
                OFFSET -3.823061 22.323311 -0.325006
                CHANNELS 3 Zrotation Xrotation Yrotation
                JOINT RightArm
                {
                    OFFSET -12.560579 0.000000 0.000000
                    CHANNELS 3 Zrotation Xrotation Yrotation
                    JOINT RightForeArm
                    {
                        OFFSET -28.806782 0.000000 0.000000
                        CHANNELS 3 Zrotation Xrotation Yrotation
                        JOINT RightHand
                        {
                            OFFSET -23.813900 0.000000 0.000000
                            CHANNELS 3 Zrotation Xrotation Yrotation
                            End Site
                            {
                                OFFSET -14.421371 0.000000 0.000000
                            }
                        }
                    }
                }
            }
        }
    }
    JOINT LeftUpLeg
    {
        OFFSET 9.614247 0.000000 0.000000
        CHANNELS 3 Zrotation Xrotation Yrotation
        JOINT LeftLeg
        {
            OFFSET -0.000000 -41.464203 0.000000
            CHANNELS 3 Zrotation Xrotation Yrotation
            JOINT LeftFoot
            {
                OFFSET -0.000000 -34.276012 0.000000
                CHANNELS 3 Zrotation Xrotation Yrotation
                JOINT LeftToeBase
                {
                    OFFSET -0.000000 -6.249260 14.421371
                    CHANNELS 3 Zrotation Xrotation Yrotation
                    End Site
                    {
                        OFFSET -0.000000 0.000000 3.845699
                    }
                }
            }
        }
    }
    JOINT RightUpLeg
    {
        OFFSET -9.614247 0.000000 0.000000
        CHANNELS 3 Zrotation Xrotation Yrotation
        JOINT RightLeg
        {
            OFFSET -0.000000 -41.464203 0.000000
            CHANNELS 3 Zrotation Xrotation Yrotation
            JOINT RightFoot
            {
                OFFSET -0.000000 -34.276012 0.000000
                CHANNELS 3 Zrotation Xrotation Yrotation
                JOINT RightToeBase
                {
                    OFFSET -0.000000 -6.249260 14.421371
                    CHANNELS 3 Zrotation Xrotation Yrotation
                    End Site
                    {
                        OFFSET -0.000000 0.000000 3.845699
                    }
                }
            }
        }
    }
}
MOTION
Frames:    4
Frame Time:    0.004000
-8.942861    83.679718    -82.636551    0.424308    -5.200165    -5.901755    -0.538469    4.562524    1.876583    -4.773726    0.460045    1.874321    11.333410    12.847528    -3.973220    -7.363771    1.278809    -5.468593    2.718680    8.032532    14.524246    -60.383305    51.320702    -14.475150    2.919083    -4.030483    -22.923883    -14.754868    -2.522249    -7.087126    -1.946765    5.830292    4.165936    66.474678    36.520878    22.388599    -3.872259    4.557250    9.271549    2.646601    4.991969    5.290659    -3.649585    -4.531076    -2.165080    -4.150558    15.293622    -0.190756    9.262444    -3.933326    22.920723    0.000000    0.000000    0.000000    -3.755738    -2.801633    -3.922418    -5.849903    52.932392    4.736451    -0.722325    -6.705620    -1.858681    0.000000    0.000000    0.000000    
-8.908007    83.727905    -82.337875    0.373719    -5.239436    -5.772572    -0.541555    4.650053    1.785708    -4.650951    0.364065    1.778538    11.300268    12.936172    -3.946028    -7.378219    1.337916    -5.428098    2.725067    8.034023    14.423313    -60.309662    51.249886    -14.670192    3.019492    -3.985618    -22.996557    -14.689321    -2.455797    -7.112597    -1.966922    5.876936    4.072673    66.520836    36.362671    22.291050    -3.820119    4.555661    9.219951    2.611632    4.982741    5.286738    -3.624606    -4.208450    -2.074373    -4.150770    15.177883    -0.566212    9.294632    -3.987020    23.079636    0.000000    0.000000    0.000000    -3.621330    -3.347839    -3.984210    -5.978865    53.212120    4.793683    -0.884771    -7.006610    -1.982458    0.000000    0.000000    0.000000    
-8.865051    83.769753    -82.034531    0.318151    -5.265064    -5.598365    -0.470801    4.699569    1.639612    -4.619271    0.295959    1.632247    11.308457    13.055108    -3.891359    -7.443536    1.375247    -5.365168    2.715452    8.040915    14.419443    -59.826382    51.613480    -15.120976    3.043796    -4.142306    -23.133165    -14.553970    -2.619378    -7.059524    -1.996375    5.901936    4.041640    66.518356    36.419159    22.229088    -3.787632    4.506501    9.161784    2.579778    4.925301    5.184570    -3.607812    -3.898697    -2.029695    -4.141146    15.044347    -0.785505    9.304214    -4.073148    23.073664    0.000000    0.000000    0.000000    -3.486438    -3.897057    -4.098213    -6.075806    53.443878    4.677015    -1.206640    -7.378444    -1.851334    0.000000    0.000000    0.000000    
-8.846360    83.793549    -81.732880    0.227712    -5.213074    -5.393008    -0.425332    4.611616    1.493732    -4.495781    0.344142    1.490082    11.303381    13.098715    -3.829733    -7.509649    1.438812    -5.300979    2.797068    7.944434    14.317909    -59.949669    51.519142    -15.164708    3.178110    -4.038678    -23.186607    -14.075206    -2.524393    -6.995822    -2.041926    6.015144    4.024658    66.523392    36.189770    22.256395    -3.709707    4.585834    9.017827    2.424260    4.988839    5.287160    -3.514532    -3.649513    -2.140564    -4.196388    14.872312    -0.865435    9.360059    -4.205788    23.041584    0.000000    0.000000    0.000000    -3.294414    -4.503489    -4.234269    -6.223011    53.665852    4.931578    -1.436238    -7.746670    -2.009249    0.000000    0.000000    0.000000    
